# xmcd
#
# Track frame offsets:
#	150
#	8089
#	31002
#	50156
#	73091
#	90971
#	105213
#	119535
#	138502
#	161084
#	177865
#	194889
#	216729
#
# Disc length: 3147 seconds
#
# Revision: 1
# Processed by: cddbd v1.5.2PL0 Copyright (c) Steve Scherf et al.
# Submitted via: audiograbber 1.83.01
#
DISCID=ba0c490d
DTITLE=Bernard Allison - storm of life
DYEAR=1900
DGENRE=Blues
TTITLE0=Slip Slidin'
TTITLE1=Storms Of Life
TTITLE2=Bernard Allison - Down South
TTITLE3=Just Do Me Any Way You Want
TTITLE4=I Think I Love You Too Much
TTITLE5=Mean Town BlueÿÿÐp
TTITLE6=eed Slide
TTITLE7=I Wanna Drive You Home
TTITLE8=Reaching Out
TTITLE9=Snake Bit Again
TTITLE10=Fistful Of Dirt
TTITLE11=Help Me Through The Day
TTITLE12=Goodbye Little Girl
EXTD=
EXTT0=
EXTT1=
EXTT2=
EXTT3=
EXTT4=
EXTT5=
EXTT6=
EXTT7=
EXTT8=
EXTT9=
EXTT10=
EXTT11=
EXTT12=
PLAYORDER=
